<mxfile host="65bd71144e">
    <diagram id="zGbFjV_OHNwkBoH3-h7r" name="Purpose of database">
        <mxGraphModel dx="1140" dy="800" grid="1" gridSize="10" guides="1" tooltips="1" connect="1" arrows="1" fold="1" page="1" pageScale="1" pageWidth="850" pageHeight="1100" math="0" shadow="0">
            <root>
                <mxCell id="0"/>
                <mxCell id="1" parent="0"/>
                <mxCell id="2" value="transportCompany" style="ellipse;shape=cloud;whiteSpace=wrap;html=1;" vertex="1" parent="1">
                    <mxGeometry x="260" y="240" width="210" height="150" as="geometry"/>
                </mxCell>
                <mxCell id="3" value="Routes" style="ellipse;shape=cloud;whiteSpace=wrap;html=1;" vertex="1" parent="1">
                    <mxGeometry x="260" y="60" width="120" height="80" as="geometry"/>
                </mxCell>
                <mxCell id="9" value="Buses" style="ellipse;shape=cloud;whiteSpace=wrap;html=1;" vertex="1" parent="1">
                    <mxGeometry x="120" y="140" width="120" height="80" as="geometry"/>
                </mxCell>
                <mxCell id="10" value="drivers" style="ellipse;shape=cloud;whiteSpace=wrap;html=1;" vertex="1" parent="1">
                    <mxGeometry x="430" y="70" width="120" height="80" as="geometry"/>
                </mxCell>
            </root>
        </mxGraphModel>
    </diagram>
    <diagram id="e9RPQQoNoAIUlsKV8v70" name="Entity Relationship Model">
        <mxGraphModel dx="1140" dy="800" grid="1" gridSize="10" guides="1" tooltips="1" connect="1" arrows="1" fold="1" page="1" pageScale="1" pageWidth="850" pageHeight="1100" math="0" shadow="0">
            <root>
                <mxCell id="0"/>
                <mxCell id="1" parent="0"/>
                <mxCell id="ONN64_rDpQzzVI04gouk-8" style="edgeStyle=none;html=1;exitX=1;exitY=0.5;exitDx=0;exitDy=0;" edge="1" parent="1" source="UtrCd1f_Jn6FESroQ6Jb-1" target="UtrCd1f_Jn6FESroQ6Jb-2">
                    <mxGeometry relative="1" as="geometry"/>
                </mxCell>
                <mxCell id="ONN64_rDpQzzVI04gouk-13" style="edgeStyle=none;html=1;exitX=0.5;exitY=1;exitDx=0;exitDy=0;" edge="1" parent="1" source="UtrCd1f_Jn6FESroQ6Jb-1" target="ONN64_rDpQzzVI04gouk-10">
                    <mxGeometry relative="1" as="geometry"/>
                </mxCell>
                <mxCell id="UtrCd1f_Jn6FESroQ6Jb-1" value="Company" style="rounded=0;whiteSpace=wrap;html=1;" vertex="1" parent="1">
                    <mxGeometry x="130" y="180" width="120" height="60" as="geometry"/>
                </mxCell>
                <mxCell id="ONN64_rDpQzzVI04gouk-9" style="edgeStyle=none;html=1;exitX=1;exitY=0.5;exitDx=0;exitDy=0;" edge="1" parent="1" source="UtrCd1f_Jn6FESroQ6Jb-2" target="UtrCd1f_Jn6FESroQ6Jb-3">
                    <mxGeometry relative="1" as="geometry"/>
                </mxCell>
                <mxCell id="UtrCd1f_Jn6FESroQ6Jb-2" value="has" style="rhombus;whiteSpace=wrap;html=1;" vertex="1" parent="1">
                    <mxGeometry x="345" y="180" width="80" height="80" as="geometry"/>
                </mxCell>
                <mxCell id="UtrCd1f_Jn6FESroQ6Jb-3" value="drivers" style="rounded=0;whiteSpace=wrap;html=1;" vertex="1" parent="1">
                    <mxGeometry x="550" y="190" width="120" height="60" as="geometry"/>
                </mxCell>
                <mxCell id="ONN64_rDpQzzVI04gouk-5" style="edgeStyle=none;html=1;exitX=1;exitY=1;exitDx=0;exitDy=0;" edge="1" parent="1" source="UtrCd1f_Jn6FESroQ6Jb-4" target="UtrCd1f_Jn6FESroQ6Jb-1">
                    <mxGeometry relative="1" as="geometry"/>
                </mxCell>
                <mxCell id="UtrCd1f_Jn6FESroQ6Jb-4" value="name" style="ellipse;whiteSpace=wrap;html=1;" vertex="1" parent="1">
                    <mxGeometry x="20" y="50" width="90" height="50" as="geometry"/>
                </mxCell>
                <mxCell id="ONN64_rDpQzzVI04gouk-6" style="edgeStyle=none;html=1;exitX=0.5;exitY=1;exitDx=0;exitDy=0;entryX=0.575;entryY=0.033;entryDx=0;entryDy=0;entryPerimeter=0;" edge="1" parent="1" source="ONN64_rDpQzzVI04gouk-1" target="UtrCd1f_Jn6FESroQ6Jb-1">
                    <mxGeometry relative="1" as="geometry"/>
                </mxCell>
                <mxCell id="ONN64_rDpQzzVI04gouk-1" value="id" style="ellipse;whiteSpace=wrap;html=1;" vertex="1" parent="1">
                    <mxGeometry x="100" y="10" width="90" height="50" as="geometry"/>
                </mxCell>
                <mxCell id="ONN64_rDpQzzVI04gouk-7" style="edgeStyle=none;html=1;exitX=0;exitY=1;exitDx=0;exitDy=0;entryX=0.75;entryY=0;entryDx=0;entryDy=0;" edge="1" parent="1" source="ONN64_rDpQzzVI04gouk-2" target="UtrCd1f_Jn6FESroQ6Jb-1">
                    <mxGeometry relative="1" as="geometry"/>
                </mxCell>
                <mxCell id="ONN64_rDpQzzVI04gouk-2" value="Addresse" style="ellipse;whiteSpace=wrap;html=1;" vertex="1" parent="1">
                    <mxGeometry x="210" y="10" width="90" height="50" as="geometry"/>
                </mxCell>
                <mxCell id="ONN64_rDpQzzVI04gouk-4" style="edgeStyle=none;html=1;exitX=1;exitY=0.5;exitDx=0;exitDy=0;entryX=0;entryY=0;entryDx=0;entryDy=0;" edge="1" parent="1" source="ONN64_rDpQzzVI04gouk-3" target="UtrCd1f_Jn6FESroQ6Jb-1">
                    <mxGeometry relative="1" as="geometry"/>
                </mxCell>
                <mxCell id="ONN64_rDpQzzVI04gouk-3" value="phone" style="ellipse;whiteSpace=wrap;html=1;" vertex="1" parent="1">
                    <mxGeometry x="10" y="140" width="90" height="50" as="geometry"/>
                </mxCell>
                <mxCell id="ONN64_rDpQzzVI04gouk-14" style="edgeStyle=none;html=1;exitX=1;exitY=0.5;exitDx=0;exitDy=0;" edge="1" parent="1" source="ONN64_rDpQzzVI04gouk-10" target="ONN64_rDpQzzVI04gouk-11">
                    <mxGeometry relative="1" as="geometry"/>
                </mxCell>
                <mxCell id="ONN64_rDpQzzVI04gouk-10" value="has" style="rhombus;whiteSpace=wrap;html=1;" vertex="1" parent="1">
                    <mxGeometry x="100" y="410" width="80" height="80" as="geometry"/>
                </mxCell>
                <mxCell id="ONN64_rDpQzzVI04gouk-41" style="edgeStyle=none;html=1;exitX=1;exitY=0.5;exitDx=0;exitDy=0;entryX=0;entryY=0.5;entryDx=0;entryDy=0;" edge="1" parent="1" source="ONN64_rDpQzzVI04gouk-11" target="ONN64_rDpQzzVI04gouk-35">
                    <mxGeometry relative="1" as="geometry"/>
                </mxCell>
                <mxCell id="ONN64_rDpQzzVI04gouk-53" style="edgeStyle=none;html=1;exitX=0.5;exitY=1;exitDx=0;exitDy=0;entryX=0.563;entryY=0.088;entryDx=0;entryDy=0;entryPerimeter=0;" edge="1" parent="1" source="ONN64_rDpQzzVI04gouk-11" target="ONN64_rDpQzzVI04gouk-52">
                    <mxGeometry relative="1" as="geometry"/>
                </mxCell>
                <mxCell id="ONN64_rDpQzzVI04gouk-11" value="buses" style="rounded=0;whiteSpace=wrap;html=1;" vertex="1" parent="1">
                    <mxGeometry x="260" y="420" width="120" height="60" as="geometry"/>
                </mxCell>
                <mxCell id="ONN64_rDpQzzVI04gouk-12" value="routes" style="rounded=0;whiteSpace=wrap;html=1;" vertex="1" parent="1">
                    <mxGeometry x="670" y="430" width="120" height="60" as="geometry"/>
                </mxCell>
                <mxCell id="ONN64_rDpQzzVI04gouk-36" style="edgeStyle=none;html=1;exitX=1;exitY=1;exitDx=0;exitDy=0;entryX=0.092;entryY=0.017;entryDx=0;entryDy=0;entryPerimeter=0;" edge="1" parent="1" source="ONN64_rDpQzzVI04gouk-15" target="ONN64_rDpQzzVI04gouk-11">
                    <mxGeometry relative="1" as="geometry"/>
                </mxCell>
                <mxCell id="ONN64_rDpQzzVI04gouk-15" value="id" style="ellipse;whiteSpace=wrap;html=1;" vertex="1" parent="1">
                    <mxGeometry x="180" y="355" width="70" height="40" as="geometry"/>
                </mxCell>
                <mxCell id="ONN64_rDpQzzVI04gouk-39" style="edgeStyle=none;html=1;exitX=0.5;exitY=1;exitDx=0;exitDy=0;entryX=0.75;entryY=0;entryDx=0;entryDy=0;" edge="1" parent="1" source="ONN64_rDpQzzVI04gouk-16" target="ONN64_rDpQzzVI04gouk-11">
                    <mxGeometry relative="1" as="geometry"/>
                </mxCell>
                <mxCell id="ONN64_rDpQzzVI04gouk-16" value="name" style="ellipse;whiteSpace=wrap;html=1;" vertex="1" parent="1">
                    <mxGeometry x="320" y="330" width="70" height="40" as="geometry"/>
                </mxCell>
                <mxCell id="ONN64_rDpQzzVI04gouk-38" style="edgeStyle=none;html=1;exitX=0;exitY=1;exitDx=0;exitDy=0;entryX=0.5;entryY=0;entryDx=0;entryDy=0;" edge="1" parent="1" source="ONN64_rDpQzzVI04gouk-17" target="ONN64_rDpQzzVI04gouk-11">
                    <mxGeometry relative="1" as="geometry"/>
                </mxCell>
                <mxCell id="ONN64_rDpQzzVI04gouk-17" value="capacity" style="ellipse;whiteSpace=wrap;html=1;" vertex="1" parent="1">
                    <mxGeometry x="287.5" y="285" width="75" height="35" as="geometry"/>
                </mxCell>
                <mxCell id="ONN64_rDpQzzVI04gouk-40" style="edgeStyle=none;html=1;exitX=0;exitY=1;exitDx=0;exitDy=0;entryX=0.883;entryY=0.033;entryDx=0;entryDy=0;entryPerimeter=0;" edge="1" parent="1" source="ONN64_rDpQzzVI04gouk-18" target="ONN64_rDpQzzVI04gouk-11">
                    <mxGeometry relative="1" as="geometry"/>
                </mxCell>
                <mxCell id="ONN64_rDpQzzVI04gouk-18" value="model" style="ellipse;whiteSpace=wrap;html=1;" vertex="1" parent="1">
                    <mxGeometry x="400" y="342.5" width="72.5" height="35" as="geometry"/>
                </mxCell>
                <mxCell id="ONN64_rDpQzzVI04gouk-37" style="edgeStyle=none;html=1;exitX=0.5;exitY=1;exitDx=0;exitDy=0;" edge="1" parent="1" source="ONN64_rDpQzzVI04gouk-19" target="ONN64_rDpQzzVI04gouk-11">
                    <mxGeometry relative="1" as="geometry"/>
                </mxCell>
                <mxCell id="ONN64_rDpQzzVI04gouk-19" value="bauart" style="ellipse;whiteSpace=wrap;html=1;" vertex="1" parent="1">
                    <mxGeometry x="210" y="290" width="70" height="40" as="geometry"/>
                </mxCell>
                <mxCell id="ONN64_rDpQzzVI04gouk-30" style="edgeStyle=none;html=1;exitX=0.5;exitY=1;exitDx=0;exitDy=0;entryX=0.067;entryY=0.017;entryDx=0;entryDy=0;entryPerimeter=0;" edge="1" parent="1" source="ONN64_rDpQzzVI04gouk-25" target="UtrCd1f_Jn6FESroQ6Jb-3">
                    <mxGeometry relative="1" as="geometry"/>
                </mxCell>
                <mxCell id="ONN64_rDpQzzVI04gouk-25" value="id" style="ellipse;whiteSpace=wrap;html=1;" vertex="1" parent="1">
                    <mxGeometry x="440" y="20" width="90" height="50" as="geometry"/>
                </mxCell>
                <mxCell id="ONN64_rDpQzzVI04gouk-31" style="edgeStyle=none;html=1;exitX=0.5;exitY=1;exitDx=0;exitDy=0;entryX=0.317;entryY=-0.05;entryDx=0;entryDy=0;entryPerimeter=0;" edge="1" parent="1" source="ONN64_rDpQzzVI04gouk-26" target="UtrCd1f_Jn6FESroQ6Jb-3">
                    <mxGeometry relative="1" as="geometry"/>
                </mxCell>
                <mxCell id="ONN64_rDpQzzVI04gouk-26" value="fName" style="ellipse;whiteSpace=wrap;html=1;" vertex="1" parent="1">
                    <mxGeometry x="540" y="10" width="90" height="50" as="geometry"/>
                </mxCell>
                <mxCell id="ONN64_rDpQzzVI04gouk-32" style="edgeStyle=none;html=1;exitX=0.5;exitY=1;exitDx=0;exitDy=0;entryX=0.617;entryY=-0.017;entryDx=0;entryDy=0;entryPerimeter=0;" edge="1" parent="1" source="ONN64_rDpQzzVI04gouk-27" target="UtrCd1f_Jn6FESroQ6Jb-3">
                    <mxGeometry relative="1" as="geometry"/>
                </mxCell>
                <mxCell id="ONN64_rDpQzzVI04gouk-27" value="lName" style="ellipse;whiteSpace=wrap;html=1;" vertex="1" parent="1">
                    <mxGeometry x="635" y="10" width="90" height="50" as="geometry"/>
                </mxCell>
                <mxCell id="ONN64_rDpQzzVI04gouk-33" style="edgeStyle=none;html=1;exitX=0;exitY=1;exitDx=0;exitDy=0;entryX=0.75;entryY=0;entryDx=0;entryDy=0;" edge="1" parent="1" source="ONN64_rDpQzzVI04gouk-28" target="UtrCd1f_Jn6FESroQ6Jb-3">
                    <mxGeometry relative="1" as="geometry"/>
                </mxCell>
                <mxCell id="ONN64_rDpQzzVI04gouk-28" value="Addresse" style="ellipse;whiteSpace=wrap;html=1;" vertex="1" parent="1">
                    <mxGeometry x="725" y="40" width="90" height="50" as="geometry"/>
                </mxCell>
                <mxCell id="ONN64_rDpQzzVI04gouk-34" style="edgeStyle=none;html=1;exitX=0.5;exitY=1;exitDx=0;exitDy=0;entryX=1;entryY=0;entryDx=0;entryDy=0;" edge="1" parent="1" source="ONN64_rDpQzzVI04gouk-29" target="UtrCd1f_Jn6FESroQ6Jb-3">
                    <mxGeometry relative="1" as="geometry"/>
                </mxCell>
                <mxCell id="ONN64_rDpQzzVI04gouk-29" value="phone" style="ellipse;whiteSpace=wrap;html=1;" vertex="1" parent="1">
                    <mxGeometry x="710" y="110" width="90" height="50" as="geometry"/>
                </mxCell>
                <mxCell id="ONN64_rDpQzzVI04gouk-42" style="edgeStyle=none;html=1;exitX=1;exitY=0.5;exitDx=0;exitDy=0;entryX=0;entryY=0.5;entryDx=0;entryDy=0;" edge="1" parent="1" source="ONN64_rDpQzzVI04gouk-35" target="ONN64_rDpQzzVI04gouk-12">
                    <mxGeometry relative="1" as="geometry"/>
                </mxCell>
                <mxCell id="ONN64_rDpQzzVI04gouk-35" value="has" style="rhombus;whiteSpace=wrap;html=1;" vertex="1" parent="1">
                    <mxGeometry x="490" y="410" width="80" height="80" as="geometry"/>
                </mxCell>
                <mxCell id="ONN64_rDpQzzVI04gouk-44" style="edgeStyle=none;html=1;exitX=0.5;exitY=1;exitDx=0;exitDy=0;" edge="1" parent="1" source="ONN64_rDpQzzVI04gouk-43" target="ONN64_rDpQzzVI04gouk-12">
                    <mxGeometry relative="1" as="geometry"/>
                </mxCell>
                <mxCell id="ONN64_rDpQzzVI04gouk-43" value="id" style="ellipse;whiteSpace=wrap;html=1;" vertex="1" parent="1">
                    <mxGeometry x="610" y="315" width="70" height="40" as="geometry"/>
                </mxCell>
                <mxCell id="ONN64_rDpQzzVI04gouk-46" style="edgeStyle=none;html=1;exitX=0.5;exitY=1;exitDx=0;exitDy=0;entryX=0.5;entryY=0;entryDx=0;entryDy=0;" edge="1" parent="1" source="ONN64_rDpQzzVI04gouk-45" target="ONN64_rDpQzzVI04gouk-12">
                    <mxGeometry relative="1" as="geometry"/>
                </mxCell>
                <mxCell id="ONN64_rDpQzzVI04gouk-45" value="sourceName" style="ellipse;whiteSpace=wrap;html=1;" vertex="1" parent="1">
                    <mxGeometry x="645" y="270" width="70" height="40" as="geometry"/>
                </mxCell>
                <mxCell id="ONN64_rDpQzzVI04gouk-48" style="edgeStyle=none;html=1;exitX=0.5;exitY=1;exitDx=0;exitDy=0;entryX=0.75;entryY=0;entryDx=0;entryDy=0;" edge="1" parent="1" source="ONN64_rDpQzzVI04gouk-47" target="ONN64_rDpQzzVI04gouk-12">
                    <mxGeometry relative="1" as="geometry"/>
                </mxCell>
                <mxCell id="ONN64_rDpQzzVI04gouk-47" value="destinationName" style="ellipse;whiteSpace=wrap;html=1;" vertex="1" parent="1">
                    <mxGeometry x="740" y="350" width="90" height="45" as="geometry"/>
                </mxCell>
                <mxCell id="ONN64_rDpQzzVI04gouk-50" style="edgeStyle=none;html=1;exitX=0;exitY=1;exitDx=0;exitDy=0;" edge="1" parent="1" source="ONN64_rDpQzzVI04gouk-49">
                    <mxGeometry relative="1" as="geometry">
                        <mxPoint x="740" y="430" as="targetPoint"/>
                    </mxGeometry>
                </mxCell>
                <mxCell id="ONN64_rDpQzzVI04gouk-49" value="distance" style="ellipse;whiteSpace=wrap;html=1;" vertex="1" parent="1">
                    <mxGeometry x="725" y="270" width="70" height="40" as="geometry"/>
                </mxCell>
                <mxCell id="ONN64_rDpQzzVI04gouk-51" value="Station" style="rounded=0;whiteSpace=wrap;html=1;" vertex="1" parent="1">
                    <mxGeometry x="287.5" y="690" width="120" height="60" as="geometry"/>
                </mxCell>
                <mxCell id="ONN64_rDpQzzVI04gouk-54" style="edgeStyle=none;html=1;exitX=0.5;exitY=1;exitDx=0;exitDy=0;" edge="1" parent="1" source="ONN64_rDpQzzVI04gouk-52" target="ONN64_rDpQzzVI04gouk-51">
                    <mxGeometry relative="1" as="geometry"/>
                </mxCell>
                <mxCell id="ONN64_rDpQzzVI04gouk-52" value="has" style="rhombus;whiteSpace=wrap;html=1;" vertex="1" parent="1">
                    <mxGeometry x="300" y="550" width="80" height="80" as="geometry"/>
                </mxCell>
                <mxCell id="ONN64_rDpQzzVI04gouk-56" style="edgeStyle=none;html=1;exitX=1;exitY=0.5;exitDx=0;exitDy=0;" edge="1" parent="1" source="ONN64_rDpQzzVI04gouk-55" target="ONN64_rDpQzzVI04gouk-51">
                    <mxGeometry relative="1" as="geometry"/>
                </mxCell>
                <mxCell id="ONN64_rDpQzzVI04gouk-55" value="id" style="ellipse;whiteSpace=wrap;html=1;" vertex="1" parent="1">
                    <mxGeometry x="130" y="650" width="70" height="40" as="geometry"/>
                </mxCell>
                <mxCell id="ONN64_rDpQzzVI04gouk-60" style="edgeStyle=none;html=1;exitX=1;exitY=0.5;exitDx=0;exitDy=0;entryX=-0.004;entryY=0.617;entryDx=0;entryDy=0;entryPerimeter=0;" edge="1" parent="1" source="ONN64_rDpQzzVI04gouk-57" target="ONN64_rDpQzzVI04gouk-51">
                    <mxGeometry relative="1" as="geometry"/>
                </mxCell>
                <mxCell id="ONN64_rDpQzzVI04gouk-57" value="addresse" style="ellipse;whiteSpace=wrap;html=1;" vertex="1" parent="1">
                    <mxGeometry x="140" y="740" width="70" height="40" as="geometry"/>
                </mxCell>
                <mxCell id="ONN64_rDpQzzVI04gouk-61" style="edgeStyle=none;html=1;exitX=1;exitY=0;exitDx=0;exitDy=0;entryX=0;entryY=1;entryDx=0;entryDy=0;" edge="1" parent="1" source="ONN64_rDpQzzVI04gouk-58" target="ONN64_rDpQzzVI04gouk-51">
                    <mxGeometry relative="1" as="geometry"/>
                </mxCell>
                <mxCell id="ONN64_rDpQzzVI04gouk-58" value="cityName" style="ellipse;whiteSpace=wrap;html=1;" vertex="1" parent="1">
                    <mxGeometry x="155" y="810" width="70" height="40" as="geometry"/>
                </mxCell>
                <mxCell id="ONN64_rDpQzzVI04gouk-62" style="edgeStyle=none;html=1;exitX=0.5;exitY=0;exitDx=0;exitDy=0;entryX=0.321;entryY=0.983;entryDx=0;entryDy=0;entryPerimeter=0;" edge="1" parent="1" source="ONN64_rDpQzzVI04gouk-59" target="ONN64_rDpQzzVI04gouk-51">
                    <mxGeometry relative="1" as="geometry"/>
                </mxCell>
                <mxCell id="ONN64_rDpQzzVI04gouk-59" value="phone" style="ellipse;whiteSpace=wrap;html=1;" vertex="1" parent="1">
                    <mxGeometry x="250" y="820" width="70" height="40" as="geometry"/>
                </mxCell>
            </root>
        </mxGraphModel>
    </diagram>
    <diagram id="y1P6nz3NJ37xO6VrqHJO" name="UML">
        <mxGraphModel dx="1140" dy="800" grid="1" gridSize="10" guides="1" tooltips="1" connect="1" arrows="1" fold="1" page="1" pageScale="1" pageWidth="850" pageHeight="1100" math="0" shadow="0">
            <root>
                <mxCell id="0"/>
                <mxCell id="1" parent="0"/>
                <mxCell id="imlRnMCJDJDVbfq02iZ8-1" value="BusCompany" style="swimlane;fontStyle=0;childLayout=stackLayout;horizontal=1;startSize=30;horizontalStack=0;resizeParent=1;resizeParentMax=0;resizeLast=0;collapsible=1;marginBottom=0;whiteSpace=wrap;html=1;" vertex="1" parent="1">
                    <mxGeometry x="80" y="260" width="140" height="210" as="geometry"/>
                </mxCell>
                <mxCell id="imlRnMCJDJDVbfq02iZ8-2" value="company_id:int" style="text;strokeColor=none;fillColor=none;align=left;verticalAlign=middle;spacingLeft=4;spacingRight=4;overflow=hidden;points=[[0,0.5],[1,0.5]];portConstraint=eastwest;rotatable=0;whiteSpace=wrap;html=1;fontStyle=4" vertex="1" parent="imlRnMCJDJDVbfq02iZ8-1">
                    <mxGeometry y="30" width="140" height="30" as="geometry"/>
                </mxCell>
                <mxCell id="imlRnMCJDJDVbfq02iZ8-3" value="cName:string" style="text;strokeColor=none;fillColor=none;align=left;verticalAlign=middle;spacingLeft=4;spacingRight=4;overflow=hidden;points=[[0,0.5],[1,0.5]];portConstraint=eastwest;rotatable=0;whiteSpace=wrap;html=1;" vertex="1" parent="imlRnMCJDJDVbfq02iZ8-1">
                    <mxGeometry y="60" width="140" height="30" as="geometry"/>
                </mxCell>
                <mxCell id="imlRnMCJDJDVbfq02iZ8-4" value="cAddresse:string" style="text;strokeColor=none;fillColor=none;align=left;verticalAlign=middle;spacingLeft=4;spacingRight=4;overflow=hidden;points=[[0,0.5],[1,0.5]];portConstraint=eastwest;rotatable=0;whiteSpace=wrap;html=1;" vertex="1" parent="imlRnMCJDJDVbfq02iZ8-1">
                    <mxGeometry y="90" width="140" height="30" as="geometry"/>
                </mxCell>
                <mxCell id="imlRnMCJDJDVbfq02iZ8-5" value="cPhone:int" style="text;strokeColor=none;fillColor=none;align=left;verticalAlign=middle;spacingLeft=4;spacingRight=4;overflow=hidden;points=[[0,0.5],[1,0.5]];portConstraint=eastwest;rotatable=0;whiteSpace=wrap;html=1;" vertex="1" parent="imlRnMCJDJDVbfq02iZ8-1">
                    <mxGeometry y="120" width="140" height="30" as="geometry"/>
                </mxCell>
                <mxCell id="TCahA3sgcCY0O9YO2AuE-5" value="fk_state_id:int" style="text;strokeColor=none;fillColor=none;align=left;verticalAlign=middle;spacingLeft=4;spacingRight=4;overflow=hidden;points=[[0,0.5],[1,0.5]];portConstraint=eastwest;rotatable=0;whiteSpace=wrap;html=1;" vertex="1" parent="imlRnMCJDJDVbfq02iZ8-1">
                    <mxGeometry y="150" width="140" height="30" as="geometry"/>
                </mxCell>
                <mxCell id="tB1HXaY39n9pifFuKqo3-10" value="fk_driver_id:int" style="text;strokeColor=none;fillColor=none;align=left;verticalAlign=middle;spacingLeft=4;spacingRight=4;overflow=hidden;points=[[0,0.5],[1,0.5]];portConstraint=eastwest;rotatable=0;whiteSpace=wrap;html=1;" vertex="1" parent="imlRnMCJDJDVbfq02iZ8-1">
                    <mxGeometry y="180" width="140" height="30" as="geometry"/>
                </mxCell>
                <mxCell id="tB1HXaY39n9pifFuKqo3-1" value="Country" style="swimlane;fontStyle=0;childLayout=stackLayout;horizontal=1;startSize=30;horizontalStack=0;resizeParent=1;resizeParentMax=0;resizeLast=0;collapsible=1;marginBottom=0;whiteSpace=wrap;html=1;" vertex="1" parent="1">
                    <mxGeometry x="30" y="30" width="140" height="90" as="geometry"/>
                </mxCell>
                <mxCell id="tB1HXaY39n9pifFuKqo3-2" value="country_id:int" style="text;strokeColor=none;fillColor=none;align=left;verticalAlign=middle;spacingLeft=4;spacingRight=4;overflow=hidden;points=[[0,0.5],[1,0.5]];portConstraint=eastwest;rotatable=0;whiteSpace=wrap;html=1;fontStyle=4" vertex="1" parent="tB1HXaY39n9pifFuKqo3-1">
                    <mxGeometry y="30" width="140" height="30" as="geometry"/>
                </mxCell>
                <mxCell id="tB1HXaY39n9pifFuKqo3-3" value="country_name:string" style="text;strokeColor=none;fillColor=none;align=left;verticalAlign=middle;spacingLeft=4;spacingRight=4;overflow=hidden;points=[[0,0.5],[1,0.5]];portConstraint=eastwest;rotatable=0;whiteSpace=wrap;html=1;" vertex="1" parent="tB1HXaY39n9pifFuKqo3-1">
                    <mxGeometry y="60" width="140" height="30" as="geometry"/>
                </mxCell>
                <mxCell id="tB1HXaY39n9pifFuKqo3-4" value="state" style="swimlane;fontStyle=0;childLayout=stackLayout;horizontal=1;startSize=30;horizontalStack=0;resizeParent=1;resizeParentMax=0;resizeLast=0;collapsible=1;marginBottom=0;whiteSpace=wrap;html=1;" vertex="1" parent="1">
                    <mxGeometry x="240" y="30" width="140" height="120" as="geometry"/>
                </mxCell>
                <mxCell id="tB1HXaY39n9pifFuKqo3-5" value="state_id:int" style="text;strokeColor=none;fillColor=none;align=left;verticalAlign=middle;spacingLeft=4;spacingRight=4;overflow=hidden;points=[[0,0.5],[1,0.5]];portConstraint=eastwest;rotatable=0;whiteSpace=wrap;html=1;fontStyle=4" vertex="1" parent="tB1HXaY39n9pifFuKqo3-4">
                    <mxGeometry y="30" width="140" height="30" as="geometry"/>
                </mxCell>
                <mxCell id="tB1HXaY39n9pifFuKqo3-6" value="state_name:string" style="text;strokeColor=none;fillColor=none;align=left;verticalAlign=middle;spacingLeft=4;spacingRight=4;overflow=hidden;points=[[0,0.5],[1,0.5]];portConstraint=eastwest;rotatable=0;whiteSpace=wrap;html=1;" vertex="1" parent="tB1HXaY39n9pifFuKqo3-4">
                    <mxGeometry y="60" width="140" height="30" as="geometry"/>
                </mxCell>
                <mxCell id="tB1HXaY39n9pifFuKqo3-7" value="fk_country_id:int" style="text;strokeColor=none;fillColor=none;align=left;verticalAlign=middle;spacingLeft=4;spacingRight=4;overflow=hidden;points=[[0,0.5],[1,0.5]];portConstraint=eastwest;rotatable=0;whiteSpace=wrap;html=1;" vertex="1" parent="tB1HXaY39n9pifFuKqo3-4">
                    <mxGeometry y="90" width="140" height="30" as="geometry"/>
                </mxCell>
                <mxCell id="tB1HXaY39n9pifFuKqo3-8" style="edgeStyle=none;html=1;entryX=0;entryY=0.5;entryDx=0;entryDy=0;endArrow=ERmany;endFill=0;startArrow=ERone;startFill=0;" edge="1" parent="1" target="tB1HXaY39n9pifFuKqo3-5">
                    <mxGeometry relative="1" as="geometry">
                        <mxPoint x="170" y="75" as="sourcePoint"/>
                    </mxGeometry>
                </mxCell>
                <mxCell id="tB1HXaY39n9pifFuKqo3-9" style="edgeStyle=orthogonalEdgeStyle;html=1;exitX=0;exitY=0.5;exitDx=0;exitDy=0;entryX=0.057;entryY=0.013;entryDx=0;entryDy=0;entryPerimeter=0;endArrow=ERmany;endFill=0;startArrow=ERone;startFill=0;" edge="1" parent="1" source="tB1HXaY39n9pifFuKqo3-7" target="imlRnMCJDJDVbfq02iZ8-1">
                    <mxGeometry relative="1" as="geometry"/>
                </mxCell>
                <mxCell id="v1HlRVOs489YXbs-3wLV-1" value="driver" style="swimlane;fontStyle=0;childLayout=stackLayout;horizontal=1;startSize=30;horizontalStack=0;resizeParent=1;resizeParentMax=0;resizeLast=0;collapsible=1;marginBottom=0;whiteSpace=wrap;html=1;" vertex="1" parent="1">
                    <mxGeometry x="280" y="210" width="140" height="210" as="geometry"/>
                </mxCell>
                <mxCell id="v1HlRVOs489YXbs-3wLV-2" value="driver_id:int" style="text;strokeColor=none;fillColor=none;align=left;verticalAlign=middle;spacingLeft=4;spacingRight=4;overflow=hidden;points=[[0,0.5],[1,0.5]];portConstraint=eastwest;rotatable=0;whiteSpace=wrap;html=1;fontStyle=4" vertex="1" parent="v1HlRVOs489YXbs-3wLV-1">
                    <mxGeometry y="30" width="140" height="30" as="geometry"/>
                </mxCell>
                <mxCell id="v1HlRVOs489YXbs-3wLV-3" value="fName:string" style="text;strokeColor=none;fillColor=none;align=left;verticalAlign=middle;spacingLeft=4;spacingRight=4;overflow=hidden;points=[[0,0.5],[1,0.5]];portConstraint=eastwest;rotatable=0;whiteSpace=wrap;html=1;" vertex="1" parent="v1HlRVOs489YXbs-3wLV-1">
                    <mxGeometry y="60" width="140" height="30" as="geometry"/>
                </mxCell>
                <mxCell id="TCahA3sgcCY0O9YO2AuE-1" value="lName:string" style="text;strokeColor=none;fillColor=none;align=left;verticalAlign=middle;spacingLeft=4;spacingRight=4;overflow=hidden;points=[[0,0.5],[1,0.5]];portConstraint=eastwest;rotatable=0;whiteSpace=wrap;html=1;" vertex="1" parent="v1HlRVOs489YXbs-3wLV-1">
                    <mxGeometry y="90" width="140" height="30" as="geometry"/>
                </mxCell>
                <mxCell id="v1HlRVOs489YXbs-3wLV-4" value="addresse:string" style="text;strokeColor=none;fillColor=none;align=left;verticalAlign=middle;spacingLeft=4;spacingRight=4;overflow=hidden;points=[[0,0.5],[1,0.5]];portConstraint=eastwest;rotatable=0;whiteSpace=wrap;html=1;" vertex="1" parent="v1HlRVOs489YXbs-3wLV-1">
                    <mxGeometry y="120" width="140" height="30" as="geometry"/>
                </mxCell>
                <mxCell id="v1HlRVOs489YXbs-3wLV-5" value="phone:int" style="text;strokeColor=none;fillColor=none;align=left;verticalAlign=middle;spacingLeft=4;spacingRight=4;overflow=hidden;points=[[0,0.5],[1,0.5]];portConstraint=eastwest;rotatable=0;whiteSpace=wrap;html=1;" vertex="1" parent="v1HlRVOs489YXbs-3wLV-1">
                    <mxGeometry y="150" width="140" height="30" as="geometry"/>
                </mxCell>
                <mxCell id="JCGxsW5kw-VPReZK3buu-7" value="phone:int" style="text;strokeColor=none;fillColor=none;align=left;verticalAlign=middle;spacingLeft=4;spacingRight=4;overflow=hidden;points=[[0,0.5],[1,0.5]];portConstraint=eastwest;rotatable=0;whiteSpace=wrap;html=1;" vertex="1" parent="v1HlRVOs489YXbs-3wLV-1">
                    <mxGeometry y="180" width="140" height="30" as="geometry"/>
                </mxCell>
                <mxCell id="TCahA3sgcCY0O9YO2AuE-3" style="edgeStyle=orthogonalEdgeStyle;html=1;exitX=1;exitY=0.5;exitDx=0;exitDy=0;entryX=0;entryY=0.233;entryDx=0;entryDy=0;entryPerimeter=0;startArrow=ERone;startFill=0;endArrow=ERmany;endFill=0;" edge="1" parent="1" source="imlRnMCJDJDVbfq02iZ8-3" target="v1HlRVOs489YXbs-3wLV-4">
                    <mxGeometry relative="1" as="geometry"/>
                </mxCell>
                <mxCell id="TCahA3sgcCY0O9YO2AuE-8" style="edgeStyle=orthogonalEdgeStyle;html=1;exitX=1;exitY=0.5;exitDx=0;exitDy=0;entryX=0.814;entryY=0.005;entryDx=0;entryDy=0;entryPerimeter=0;startArrow=ERone;startFill=0;endArrow=ERmany;endFill=0;" edge="1" parent="1" source="tB1HXaY39n9pifFuKqo3-7" target="v1HlRVOs489YXbs-3wLV-1">
                    <mxGeometry relative="1" as="geometry"/>
                </mxCell>
                <mxCell id="XgahNdF96m0u9ZEjIgU6-1" value="bus" style="swimlane;fontStyle=0;childLayout=stackLayout;horizontal=1;startSize=30;horizontalStack=0;resizeParent=1;resizeParentMax=0;resizeLast=0;collapsible=1;marginBottom=0;whiteSpace=wrap;html=1;" vertex="1" parent="1">
                    <mxGeometry x="560" y="40" width="140" height="240" as="geometry"/>
                </mxCell>
                <mxCell id="XgahNdF96m0u9ZEjIgU6-2" value="bus_plate_id:int" style="text;strokeColor=none;fillColor=none;align=left;verticalAlign=middle;spacingLeft=4;spacingRight=4;overflow=hidden;points=[[0,0.5],[1,0.5]];portConstraint=eastwest;rotatable=0;whiteSpace=wrap;html=1;fontStyle=4" vertex="1" parent="XgahNdF96m0u9ZEjIgU6-1">
                    <mxGeometry y="30" width="140" height="30" as="geometry"/>
                </mxCell>
                <mxCell id="XgahNdF96m0u9ZEjIgU6-3" value="bus_bauart:string" style="text;strokeColor=none;fillColor=none;align=left;verticalAlign=middle;spacingLeft=4;spacingRight=4;overflow=hidden;points=[[0,0.5],[1,0.5]];portConstraint=eastwest;rotatable=0;whiteSpace=wrap;html=1;" vertex="1" parent="XgahNdF96m0u9ZEjIgU6-1">
                    <mxGeometry y="60" width="140" height="30" as="geometry"/>
                </mxCell>
                <mxCell id="XgahNdF96m0u9ZEjIgU6-4" value="bus_name:string" style="text;strokeColor=none;fillColor=none;align=left;verticalAlign=middle;spacingLeft=4;spacingRight=4;overflow=hidden;points=[[0,0.5],[1,0.5]];portConstraint=eastwest;rotatable=0;whiteSpace=wrap;html=1;" vertex="1" parent="XgahNdF96m0u9ZEjIgU6-1">
                    <mxGeometry y="90" width="140" height="30" as="geometry"/>
                </mxCell>
                <mxCell id="XgahNdF96m0u9ZEjIgU6-5" value="bus_model:int" style="text;strokeColor=none;fillColor=none;align=left;verticalAlign=middle;spacingLeft=4;spacingRight=4;overflow=hidden;points=[[0,0.5],[1,0.5]];portConstraint=eastwest;rotatable=0;whiteSpace=wrap;html=1;" vertex="1" parent="XgahNdF96m0u9ZEjIgU6-1">
                    <mxGeometry y="120" width="140" height="30" as="geometry"/>
                </mxCell>
                <mxCell id="XgahNdF96m0u9ZEjIgU6-6" value="bus_capacity" style="text;strokeColor=none;fillColor=none;align=left;verticalAlign=middle;spacingLeft=4;spacingRight=4;overflow=hidden;points=[[0,0.5],[1,0.5]];portConstraint=eastwest;rotatable=0;whiteSpace=wrap;html=1;" vertex="1" parent="XgahNdF96m0u9ZEjIgU6-1">
                    <mxGeometry y="150" width="140" height="30" as="geometry"/>
                </mxCell>
                <mxCell id="iV-RAkhcV6hXz-GSgvfT-3" value="fk_driver_id:int" style="text;strokeColor=none;fillColor=none;align=left;verticalAlign=middle;spacingLeft=4;spacingRight=4;overflow=hidden;points=[[0,0.5],[1,0.5]];portConstraint=eastwest;rotatable=0;whiteSpace=wrap;html=1;" vertex="1" parent="XgahNdF96m0u9ZEjIgU6-1">
                    <mxGeometry y="180" width="140" height="30" as="geometry"/>
                </mxCell>
                <mxCell id="iV-RAkhcV6hXz-GSgvfT-1" value="fk_route_id:int" style="text;strokeColor=none;fillColor=none;align=left;verticalAlign=middle;spacingLeft=4;spacingRight=4;overflow=hidden;points=[[0,0.5],[1,0.5]];portConstraint=eastwest;rotatable=0;whiteSpace=wrap;html=1;" vertex="1" parent="XgahNdF96m0u9ZEjIgU6-1">
                    <mxGeometry y="210" width="140" height="30" as="geometry"/>
                </mxCell>
                <mxCell id="Hqah7VA7eEiqm0JRNzHQ-2" style="edgeStyle=orthogonalEdgeStyle;html=1;exitX=1;exitY=0.5;exitDx=0;exitDy=0;entryX=0;entryY=0.5;entryDx=0;entryDy=0;startArrow=ERone;startFill=0;endArrow=ERone;endFill=0;" edge="1" parent="1" source="v1HlRVOs489YXbs-3wLV-3" target="XgahNdF96m0u9ZEjIgU6-4">
                    <mxGeometry relative="1" as="geometry"/>
                </mxCell>
                <mxCell id="Hqah7VA7eEiqm0JRNzHQ-3" value="route" style="swimlane;fontStyle=0;childLayout=stackLayout;horizontal=1;startSize=30;horizontalStack=0;resizeParent=1;resizeParentMax=0;resizeLast=0;collapsible=1;marginBottom=0;whiteSpace=wrap;html=1;" vertex="1" parent="1">
                    <mxGeometry x="660" y="370" width="140" height="210" as="geometry"/>
                </mxCell>
                <mxCell id="Hqah7VA7eEiqm0JRNzHQ-4" value="route_id:int" style="text;strokeColor=none;fillColor=none;align=left;verticalAlign=middle;spacingLeft=4;spacingRight=4;overflow=hidden;points=[[0,0.5],[1,0.5]];portConstraint=eastwest;rotatable=0;whiteSpace=wrap;html=1;fontStyle=4" vertex="1" parent="Hqah7VA7eEiqm0JRNzHQ-3">
                    <mxGeometry y="30" width="140" height="30" as="geometry"/>
                </mxCell>
                <mxCell id="Hqah7VA7eEiqm0JRNzHQ-5" value="route_distance:string" style="text;strokeColor=none;fillColor=none;align=left;verticalAlign=middle;spacingLeft=4;spacingRight=4;overflow=hidden;points=[[0,0.5],[1,0.5]];portConstraint=eastwest;rotatable=0;whiteSpace=wrap;html=1;" vertex="1" parent="Hqah7VA7eEiqm0JRNzHQ-3">
                    <mxGeometry y="60" width="140" height="30" as="geometry"/>
                </mxCell>
                <mxCell id="Hqah7VA7eEiqm0JRNzHQ-6" value="route_source:string" style="text;strokeColor=none;fillColor=none;align=left;verticalAlign=middle;spacingLeft=4;spacingRight=4;overflow=hidden;points=[[0,0.5],[1,0.5]];portConstraint=eastwest;rotatable=0;whiteSpace=wrap;html=1;" vertex="1" parent="Hqah7VA7eEiqm0JRNzHQ-3">
                    <mxGeometry y="90" width="140" height="30" as="geometry"/>
                </mxCell>
                <mxCell id="hXJbC3N4nhUGkSg0PXB7-20" value="destination_name:int" style="text;strokeColor=none;fillColor=none;align=left;verticalAlign=middle;spacingLeft=4;spacingRight=4;overflow=hidden;points=[[0,0.5],[1,0.5]];portConstraint=eastwest;rotatable=0;whiteSpace=wrap;html=1;" vertex="1" parent="Hqah7VA7eEiqm0JRNzHQ-3">
                    <mxGeometry y="120" width="140" height="30" as="geometry"/>
                </mxCell>
                <mxCell id="hXJbC3N4nhUGkSg0PXB7-21" value="fk_order_id:int" style="text;strokeColor=none;fillColor=none;align=left;verticalAlign=middle;spacingLeft=4;spacingRight=4;overflow=hidden;points=[[0,0.5],[1,0.5]];portConstraint=eastwest;rotatable=0;whiteSpace=wrap;html=1;" vertex="1" parent="Hqah7VA7eEiqm0JRNzHQ-3">
                    <mxGeometry y="150" width="140" height="30" as="geometry"/>
                </mxCell>
                <mxCell id="hXJbC3N4nhUGkSg0PXB7-15" value="fk_station_id:int" style="text;strokeColor=none;fillColor=none;align=left;verticalAlign=middle;spacingLeft=4;spacingRight=4;overflow=hidden;points=[[0,0.5],[1,0.5]];portConstraint=eastwest;rotatable=0;whiteSpace=wrap;html=1;" vertex="1" parent="Hqah7VA7eEiqm0JRNzHQ-3">
                    <mxGeometry y="180" width="140" height="30" as="geometry"/>
                </mxCell>
                <mxCell id="iV-RAkhcV6hXz-GSgvfT-2" style="edgeStyle=orthogonalEdgeStyle;html=1;exitX=1;exitY=0.5;exitDx=0;exitDy=0;entryX=0.679;entryY=-0.013;entryDx=0;entryDy=0;entryPerimeter=0;startArrow=ERmany;startFill=0;endArrow=ERone;endFill=0;" edge="1" parent="1" source="XgahNdF96m0u9ZEjIgU6-6" target="Hqah7VA7eEiqm0JRNzHQ-3">
                    <mxGeometry relative="1" as="geometry"/>
                </mxCell>
                <mxCell id="D4hVXaKs7DQ7HSrWt-1F-1" value="busStation" style="swimlane;fontStyle=0;childLayout=stackLayout;horizontal=1;startSize=30;horizontalStack=0;resizeParent=1;resizeParentMax=0;resizeLast=0;collapsible=1;marginBottom=0;whiteSpace=wrap;html=1;" vertex="1" parent="1">
                    <mxGeometry x="440" y="570" width="140" height="180" as="geometry"/>
                </mxCell>
                <mxCell id="D4hVXaKs7DQ7HSrWt-1F-2" value="station_id:int" style="text;strokeColor=none;fillColor=none;align=left;verticalAlign=middle;spacingLeft=4;spacingRight=4;overflow=hidden;points=[[0,0.5],[1,0.5]];portConstraint=eastwest;rotatable=0;whiteSpace=wrap;html=1;fontStyle=4" vertex="1" parent="D4hVXaKs7DQ7HSrWt-1F-1">
                    <mxGeometry y="30" width="140" height="30" as="geometry"/>
                </mxCell>
                <mxCell id="D4hVXaKs7DQ7HSrWt-1F-3" value="city_name:string" style="text;strokeColor=none;fillColor=none;align=left;verticalAlign=middle;spacingLeft=4;spacingRight=4;overflow=hidden;points=[[0,0.5],[1,0.5]];portConstraint=eastwest;rotatable=0;whiteSpace=wrap;html=1;" vertex="1" parent="D4hVXaKs7DQ7HSrWt-1F-1">
                    <mxGeometry y="60" width="140" height="30" as="geometry"/>
                </mxCell>
                <mxCell id="D4hVXaKs7DQ7HSrWt-1F-4" value="city_addresse:string" style="text;strokeColor=none;fillColor=none;align=left;verticalAlign=middle;spacingLeft=4;spacingRight=4;overflow=hidden;points=[[0,0.5],[1,0.5]];portConstraint=eastwest;rotatable=0;whiteSpace=wrap;html=1;" vertex="1" parent="D4hVXaKs7DQ7HSrWt-1F-1">
                    <mxGeometry y="90" width="140" height="30" as="geometry"/>
                </mxCell>
                <mxCell id="hXJbC3N4nhUGkSg0PXB7-18" value="city_phone:int" style="text;strokeColor=none;fillColor=none;align=left;verticalAlign=middle;spacingLeft=4;spacingRight=4;overflow=hidden;points=[[0,0.5],[1,0.5]];portConstraint=eastwest;rotatable=0;whiteSpace=wrap;html=1;" vertex="1" parent="D4hVXaKs7DQ7HSrWt-1F-1">
                    <mxGeometry y="120" width="140" height="30" as="geometry"/>
                </mxCell>
                <mxCell id="D4hVXaKs7DQ7HSrWt-1F-5" value="fk_route_id:int" style="text;strokeColor=none;fillColor=none;align=left;verticalAlign=middle;spacingLeft=4;spacingRight=4;overflow=hidden;points=[[0,0.5],[1,0.5]];portConstraint=eastwest;rotatable=0;whiteSpace=wrap;html=1;" vertex="1" parent="D4hVXaKs7DQ7HSrWt-1F-1">
                    <mxGeometry y="150" width="140" height="30" as="geometry"/>
                </mxCell>
                <mxCell id="hXJbC3N4nhUGkSg0PXB7-22" style="edgeStyle=orthogonalEdgeStyle;html=1;exitX=0.5;exitY=0;exitDx=0;exitDy=0;entryX=0;entryY=0.5;entryDx=0;entryDy=0;startArrow=ERmany;startFill=0;endArrow=ERmany;endFill=0;" edge="1" parent="1" source="hXJbC3N4nhUGkSg0PXB7-1" target="Hqah7VA7eEiqm0JRNzHQ-5">
                    <mxGeometry relative="1" as="geometry"/>
                </mxCell>
                <mxCell id="hXJbC3N4nhUGkSg0PXB7-1" value="busStop" style="swimlane;fontStyle=0;childLayout=stackLayout;horizontal=1;startSize=30;horizontalStack=0;resizeParent=1;resizeParentMax=0;resizeLast=0;collapsible=1;marginBottom=0;whiteSpace=wrap;html=1;" vertex="1" parent="1">
                    <mxGeometry x="270" y="600" width="140" height="60" as="geometry"/>
                </mxCell>
                <mxCell id="hXJbC3N4nhUGkSg0PXB7-2" value="order_id:int" style="text;strokeColor=none;fillColor=none;align=left;verticalAlign=middle;spacingLeft=4;spacingRight=4;overflow=hidden;points=[[0,0.5],[1,0.5]];portConstraint=eastwest;rotatable=0;whiteSpace=wrap;html=1;fontStyle=4" vertex="1" parent="hXJbC3N4nhUGkSg0PXB7-1">
                    <mxGeometry y="30" width="140" height="30" as="geometry"/>
                </mxCell>
                <mxCell id="hXJbC3N4nhUGkSg0PXB7-17" style="edgeStyle=orthogonalEdgeStyle;html=1;exitX=1;exitY=0.5;exitDx=0;exitDy=0;entryX=0.5;entryY=1;entryDx=0;entryDy=0;entryPerimeter=0;startArrow=ERmany;startFill=0;endArrow=ERmany;endFill=0;" edge="1" parent="1" source="D4hVXaKs7DQ7HSrWt-1F-4" target="hXJbC3N4nhUGkSg0PXB7-15">
                    <mxGeometry relative="1" as="geometry"/>
                </mxCell>
            </root>
        </mxGraphModel>
    </diagram>
</mxfile>